<?xml version="1.0" encoding="iso-8859-1"?>
<!-- https://www.svgrepo.com/svg/200067/left-align-text -->
<!-- Licensed CC0 -->
<!-- Generator: Adobe Illustrator 19.0.0, SVG Export Plug-In . SVG Version: 6.00 Build 0)  -->
<svg version="1.1" id="left-align-text" xmlns="http://www.w3.org/2000/svg" xmlns:xlink="http://www.w3.org/1999/xlink" x="0px" y="0px"
	 viewBox="0 0 512 512" style="enable-background:new 0 0 512 512;" xml:space="preserve">
<g>
	<path style="fill:#424EDE;" d="M23.273,93.091h465.455c12.853,0,23.273-10.42,23.273-23.273s-10.42-23.273-23.273-23.273H23.273
		C10.42,46.545,0,56.965,0,69.818S10.42,93.091,23.273,93.091z"/>
	<path style="fill:#424EDE;" d="M23.273,186.182h341.333c12.853,0,23.273-10.42,23.273-23.273c0-12.853-10.42-23.273-23.273-23.273
		H23.273C10.42,139.636,0,150.056,0,162.909C0,175.762,10.42,186.182,23.273,186.182z"/>
	<path style="fill:#424EDE;" d="M23.273,279.273h465.455C501.58,279.273,512,268.853,512,256c0-12.853-10.42-23.273-23.273-23.273
		H23.273C10.42,232.727,0,243.147,0,256C0,268.853,10.42,279.273,23.273,279.273z"/>
	<path style="fill:#424EDE;" d="M23.273,465.455h465.455c12.853,0,23.273-10.42,23.273-23.273c0-12.853-10.42-23.273-23.273-23.273
		H23.273C10.42,418.909,0,429.329,0,442.182C0,455.035,10.42,465.455,23.273,465.455z"/>
	<path style="fill:#424EDE;" d="M23.273,372.364h341.333c12.853,0,23.273-10.42,23.273-23.273c0-12.853-10.42-23.273-23.273-23.273
		H23.273C10.42,325.818,0,336.238,0,349.091C0,361.944,10.42,372.364,23.273,372.364z"/>
</g>
</svg>
